<svg width="32" height="32" viewBox="0 0 32 32" fill="none" xmlns="http://www.w3.org/2000/svg">
<g clip-path="url(#clip0_33_1345)">
<path fill-rule="evenodd" clip-rule="evenodd" d="M16 32C24.8372 32 32 24.8372 32 16C32 7.16282 24.8372 0 16 0C7.16282 0 0 7.16282 0 16C0 24.8372 7.16282 32 16 32Z" fill="#F0B90B"/>
<path d="M8.79354 16.0001L8.80508 11.7693L12.4 9.65392V7.177L6.70123 10.5193V17.2373L8.79354 16.0001ZM8.79354 20.2308V17.7655L6.69995 19.0039V21.4693L8.79354 22.7078L10.8974 21.4693L8.79354 20.2308ZM13.9012 21.4693L15.9948 22.7078L18.0987 21.4693L15.9948 20.2308L13.9012 21.4693Z" fill="white"/>
<path d="M10.3064 12.6462V15.1231L12.4 13.8847V11.4193L10.3064 12.6462ZM13.9013 8.76674L15.9949 7.52828L18.0987 8.76674V6.30135L15.9949 5.06289L13.9013 6.30135V8.76674ZM21.1013 21.4693L23.1949 22.7078L25.2987 21.4693V19.0039L23.1949 17.7655V20.2308L21.1013 21.4693ZM23.1949 11.7693L23.2064 16.0001L25.3 17.2385V10.5206L19.6013 7.17828V9.6552L23.1949 11.7693Z" fill="white"/>
<path d="M21.6936 12.6461L19.6 11.4192V13.8846L21.6936 15.123V12.6461Z" fill="white"/>
<path d="M21.6936 19.3539L21.7051 16.877L18.1 14.7616V10.5206L16.0064 9.29367L13.9128 10.5206V14.7616L10.3077 16.877V19.3539L12.4102 20.5924L15.9936 18.4667L19.5987 20.5924L21.7026 19.3539H21.6936ZM10.3064 23.5834L15.9949 26.9373L21.6936 23.5834L19.6 22.3449L15.9949 24.4706L12.4 22.3449L10.3064 23.5834Z" fill="white"/>
</g>
<defs>
<clipPath id="clip0_33_1345">
<rect width="32" height="32" fill="white" transform="matrix(1 0 0 -1 0 32)"/>
</clipPath>
</defs>
</svg>
