<svg width="48" height="48" viewBox="0 0 48 48" fill="none" xmlns="http://www.w3.org/2000/svg">
<g id="Crypto Icon" clip-path="url(#clip0_2019_164)">
<path id="Vector" d="M24 48C37.3001 48 48 37.3001 48 24C48 10.6999 37.3001 0 24 0C10.6999 0 0 10.6999 0 24C0 37.3001 10.6999 48 24 48Z" fill="#2775CA"/>
<path id="Vector_2" d="M30.6 27.8C30.6 24.3 28.5 23.1 24.3 22.6001C21.3 22.2 20.7 21.4001 20.7 20C20.7 18.5998 21.7001 17.7 23.7 17.7C25.5 17.7 26.5001 18.3 27 19.8C27.1001 20.1 27.4001 20.3 27.7001 20.3H29.2999C29.7 20.3 30 20 30 19.6001V19.5C29.5999 17.3 27.7999 15.6 25.5 15.4001V13.0001C25.5 12.6 25.2 12.3 24.7001 12.2H23.2001C22.8 12.2 22.5 12.5 22.3999 13.0001V15.3C19.3999 15.7001 17.5001 17.7 17.5001 20.2001C17.5001 23.5001 19.5 24.8 23.7 25.3001C26.5001 25.8 27.4001 26.4 27.4001 28.0001C27.4001 29.6002 25.9999 30.7001 24.1001 30.7001C21.4999 30.7001 20.5999 29.6 20.2999 28.1C20.2001 27.7001 19.9001 27.5 19.6001 27.5H17.8999C17.5001 27.5 17.2001 27.8 17.2001 28.2V28.3001C17.5999 30.8 19.2 32.6 22.5 33.1001V35.5001C22.5 35.9 22.8 36.2 23.2999 36.3H24.7999C25.2 36.3 25.5 36 25.6001 35.5001V33.1001C28.6001 32.6 30.6 30.5 30.6 27.8Z" fill="white"/>
<path id="Vector_3" d="M18.9 38.2998C11.1 35.5 7.09992 26.8 10.0001 19.0998C11.5001 14.8998 14.8001 11.6999 18.9 10.1999C19.3001 10 19.5 9.7 19.5 9.19984V7.79992C19.5 7.39984 19.3001 7.09984 18.9 7C18.7999 7 18.6 7 18.4999 7.09984C9 10.0998 3.79992 20.2 6.79992 29.6999C8.59992 35.2998 12.9 39.5999 18.4999 41.3999C18.9 41.5998 19.3001 41.3999 19.3999 40.9998C19.5 40.9 19.5 40.7999 19.5 40.6V39.1998C19.5 38.8998 19.2 38.5 18.9 38.2998ZM29.5001 7.09984C29.1 6.89992 28.6999 7.09984 28.6001 7.49992C28.5 7.6 28.5 7.69984 28.5 7.9V9.29992C28.5 9.7 28.8 10.0998 29.1 10.3C36.9 13.0998 40.9001 21.7998 37.9999 29.5C36.4999 33.7 33.1999 36.8999 29.1 38.3999C28.6999 38.5998 28.5 38.8998 28.5 39.4V40.7999C28.5 41.2 28.6999 41.5 29.1 41.5998C29.2001 41.5998 29.4 41.5998 29.5001 41.5C39 38.5 44.2001 28.3998 41.2001 18.8999C39.4001 13.1999 34.9999 8.89984 29.5001 7.09984Z" fill="white"/>
</g>
<defs>
<clipPath id="clip0_2019_164">
<rect width="48" height="48" fill="white"/>
</clipPath>
</defs>
</svg>
