<svg width="32" height="32" viewBox="0 0 32 32" fill="none" xmlns="http://www.w3.org/2000/svg">
<g clip-path="url(#clip0_33_1342)">
<path d="M31.5197 19.8706C29.3827 28.4421 20.7007 33.6581 12.1282 31.5211C3.55975 29.3841 -1.65675 20.7021 0.480746 12.1311C2.61675 3.55855 11.2982 -1.65845 19.8682 0.478554C28.4402 2.61555 33.6567 11.2986 31.5197 19.8706Z" fill="#F7931A"/>
<path d="M23.0547 13.7205C23.3727 11.5915 21.7517 10.447 19.5352 9.68345L20.2542 6.79945L18.4982 6.36195L17.7982 9.16995C17.3372 9.05495 16.8632 8.94645 16.3922 8.83895L17.0972 6.01245L15.3427 5.57495L14.6232 8.45795C14.2412 8.37095 13.8662 8.28495 13.5022 8.19445L13.5042 8.18545L11.0832 7.58095L10.6162 9.45595C10.6162 9.45595 11.9187 9.75445 11.8912 9.77295C12.6022 9.95045 12.7312 10.421 12.7092 10.794L11.8902 14.0795C11.9392 14.092 12.0027 14.11 12.0727 14.1379L11.8877 14.092L10.7392 18.6944C10.6522 18.9104 10.4317 19.2344 9.93473 19.1114C9.95223 19.1369 8.65873 18.7929 8.65873 18.7929L7.78723 20.8029L10.0722 21.3724C10.4972 21.4789 10.9137 21.5904 11.3232 21.6954L10.5967 24.613L12.3502 25.0505L13.0702 22.1644C13.5487 22.2944 14.0137 22.4144 14.4687 22.5274L13.7517 25.4L15.5072 25.8375L16.2337 22.926C19.2272 23.4925 21.4787 23.2639 22.4252 20.5569C23.1887 18.3769 22.3877 17.1194 20.8127 16.299C21.9597 16.0335 22.8242 15.279 23.0547 13.7205ZM19.0432 19.3449C18.5002 21.5249 14.8302 20.347 13.6397 20.051L14.6037 16.1865C15.7937 16.4835 19.6087 17.0714 19.0432 19.3449ZM19.5857 13.689C19.0907 15.672 16.0357 14.6644 15.0442 14.4174L15.9182 10.9125C16.9097 11.1595 20.1017 11.6205 19.5857 13.689Z" fill="white"/>
</g>
<defs>
<clipPath id="clip0_33_1342">
<rect width="32" height="32" fill="white"/>
</clipPath>
</defs>
</svg>
