<svg width="148" height="27" viewBox="0 0 148 27" fill="none" xmlns="http://www.w3.org/2000/svg">
<path d="M0 21.2504V1.2837H9.67702C11.2895 1.2837 12.7222 1.60729 13.9746 2.2535C15.227 2.9002 16.1991 3.77941 16.8918 4.89212C17.5844 6.00433 17.9305 7.22652 17.9305 8.55721C17.9305 9.8879 17.5839 11.1101 16.8918 12.2223C16.1991 13.3345 15.2266 14.2142 13.9746 14.8609C12.7222 15.5076 11.2895 15.8307 9.67702 15.8307H5.26532V21.2504H0ZM9.53491 10.9817C10.5026 10.9817 11.2426 10.7632 11.755 10.3258C12.2674 9.88838 12.5236 9.29885 12.5236 8.55721C12.5236 7.81557 12.2674 7.22652 11.755 6.7886C11.2426 6.35118 10.5026 6.13271 9.53491 6.13271H5.2658V10.9817H9.53491ZM22.7695 4.849C22.0101 4.849 21.3702 4.60679 20.8481 4.12189C20.3261 3.63699 20.0655 3.0712 20.0655 2.4245C20.0655 1.77781 20.3217 1.18876 20.8341 0.71306C21.3465 0.237848 21.9913 0 22.7695 0C23.5477 0 24.1925 0.237848 24.7049 0.71306C25.2173 1.18876 25.4735 1.75891 25.4735 2.4245C25.4735 3.09009 25.2124 3.63699 24.6909 4.12189C24.1689 4.60679 23.5284 4.849 22.7695 4.849ZM20.3503 21.2504V6.41803H25.1888V21.2504H20.3503ZM29.6005 26.67V22.8194H38.8507V18.9688H38.566C38.319 19.3495 37.9869 19.7012 37.5697 20.0243C37.1521 20.3479 36.6542 20.609 36.0756 20.8086C35.4966 21.0081 34.8561 21.1079 34.1543 21.1079C32.9589 21.1079 31.8631 20.794 30.8669 20.1667C29.8707 19.5394 29.0784 18.6505 28.4902 17.4995C27.9019 16.349 27.608 15.0324 27.608 13.5491C27.608 12.0658 27.9019 10.7492 28.4902 9.5987C29.0779 8.44821 29.8707 7.55931 30.8669 6.93151C31.8631 6.3037 32.9589 5.99029 34.1543 5.99029C34.8561 5.99029 35.4966 6.09976 36.0756 6.31824C36.6542 6.53719 37.1521 6.81718 37.5697 7.15967C37.9869 7.50215 38.319 7.87273 38.566 8.27189H38.8507V6.41803H43.6892V26.67H29.6005ZM35.7199 16.972C36.327 16.972 36.8679 16.8344 37.3421 16.5583C37.8162 16.2827 38.186 15.8879 38.4519 15.3744C38.7172 14.8609 38.8502 14.2525 38.8502 13.5491C38.8502 12.8457 38.7172 12.2368 38.4519 11.7238C38.186 11.2104 37.8158 10.816 37.3421 10.5399C36.8674 10.2643 36.327 10.1262 35.7199 10.1262C35.1128 10.1262 34.5714 10.2643 34.0977 10.5399C33.623 10.8156 33.2533 11.2104 32.9879 11.7238C32.722 12.2373 32.5896 12.8462 32.5896 13.5491C32.5896 14.252 32.722 14.8614 32.9879 15.3744C33.2533 15.8879 33.6235 16.2827 34.0977 16.5583C34.5719 16.8339 35.1128 16.972 35.7199 16.972ZM47.9583 26.67V22.8194H57.2085V18.9688H56.9238C56.6768 19.3495 56.3447 19.7012 55.9275 20.0243C55.5099 20.3479 55.012 20.609 54.4335 20.8086C53.8544 21.0081 53.2139 21.1079 52.5121 21.1079C51.3167 21.1079 50.2209 20.794 49.2247 20.1667C48.2285 19.5394 47.4362 18.6505 46.848 17.4995C46.2597 16.349 45.9658 15.0324 45.9658 13.5491C45.9658 12.0658 46.2597 10.7492 46.848 9.5987C47.4357 8.44821 48.2285 7.55931 49.2247 6.93151C50.2209 6.3037 51.3167 5.99029 52.5121 5.99029C53.2139 5.99029 53.8544 6.09976 54.4335 6.31824C55.012 6.53719 55.5099 6.81718 55.9275 7.15967C56.3447 7.50215 56.6768 7.87273 56.9238 8.27189H57.2085V6.41803H62.047V26.67H47.9583ZM54.0777 16.972C54.6848 16.972 55.2257 16.8344 55.6999 16.5583C56.1741 16.2827 56.5438 15.8879 56.8097 15.3744C57.0751 14.8609 57.208 14.2525 57.208 13.5491C57.208 12.8457 57.0751 12.2368 56.8097 11.7238C56.5438 11.2104 56.1736 10.816 55.6999 10.5399C55.2252 10.2643 54.6848 10.1262 54.0777 10.1262C53.4706 10.1262 52.9292 10.2643 52.4555 10.5399C51.9808 10.8156 51.6111 11.2104 51.3457 11.7238C51.0798 12.2373 50.9474 12.8462 50.9474 13.5491C50.9474 14.252 51.0798 14.8614 51.3457 15.3744C51.6111 15.8879 51.9813 16.2827 52.4555 16.5583C52.9297 16.8339 53.4706 16.972 54.0777 16.972ZM69.3047 26.67L70.8704 21.2504H67.5975L63.7552 6.41803H68.7358L71.2972 17.1144H72.1508L74.9969 6.41803H79.9775L74.2849 26.67H69.3043H69.3047ZM89.655 21.2504V1.2837H97.3681C99.5312 1.2837 101.453 1.72597 103.132 2.61003C104.811 3.49409 106.116 4.6969 107.045 6.21845C107.975 7.74 108.44 9.42286 108.44 11.267C108.44 13.1112 107.975 14.7945 107.045 16.3156C106.115 17.8372 104.811 19.0395 103.132 19.924C101.453 20.8086 99.5312 21.2504 97.3681 21.2504H89.655ZM97.3396 16.4014C98.5161 16.4014 99.5171 16.1926 100.342 15.774C101.168 15.356 101.798 14.7616 102.235 13.9914C102.672 13.2212 102.89 12.3134 102.89 11.2675C102.89 10.2217 102.671 9.31386 102.235 8.54364C101.799 7.77342 101.168 7.17953 100.342 6.76099C99.5166 6.34294 98.5156 6.13367 97.3396 6.13367H94.9203V16.4023H97.3396V16.4014ZM111.286 21.2504V1.2837H126.655V6.13271H116.551V9.12785H124.663V13.4062H116.551V16.4014H126.655V21.2504H111.286ZM127.936 21.2504L132.916 11.4094L128.363 1.2837H133.913L137.043 8.98495H138.466L141.597 1.2837H147.147L142.593 11.4094L147.574 21.2504H141.881L138.466 13.8339H137.043L133.627 21.2504H127.935H127.936Z" fill="#FFA6C6"/>
</svg>
