<svg width="40" height="40" viewBox="0 0 40 40" fill="none" xmlns="http://www.w3.org/2000/svg">
<g id="Symbol" clip-path="url(#clip0_2001_1662)">
<g id="logo">
<g id="ears">
<g id="Group">
<path id="Vector" d="M6.5286 4.11116L2.29431 11.4263L5.283 13.1474L9.51728 5.83225L6.5286 4.11116Z" fill="#FFA6C6"/>
<path id="Vector_2" d="M8.08133 5.00349L3.84705 12.3187L6.83573 14.0398L11.07 6.72458L8.08133 5.00349Z" fill="#FFC7D4"/>
</g>
<g id="Group_2">
<path id="Vector_3" d="M30.476 5.83125L34.7103 13.1464L37.699 11.4253L33.4647 4.11016L30.476 5.83125Z" fill="#FFA6C6"/>
<path id="Vector_4" d="M28.9265 6.72459L33.1608 14.0398L36.1495 12.3187L31.9152 5.0035L28.9265 6.72459Z" fill="#FFC7D4"/>
</g>
</g>
<path id="belly6" d="M38.8253 20.2624L29.4119 36.5253H10.5852L1.17188 20.2624L4.06945 15.2571C4.22973 23.8957 11.3002 30.8487 19.9986 30.8487C28.6969 30.8487 35.768 23.8963 35.9283 15.2577L38.8253 20.2624Z" fill="#E38197"/>
<path id="bat" d="M40 32.9795C40 34.156 39.5824 35.1103 39.0684 35.1103C39.0652 35.1103 39.0615 35.1103 39.0584 35.1103C39.054 35.1103 39.0483 35.1103 39.0415 35.1096H39.0408C38.5975 35.0953 32.9689 34.9154 31.1245 34.9154C29.28 34.9154 12.1738 33.6196 12.1738 33.6196L1.31981 33.619C1.21024 34.1423 0.970448 34.5057 0.691836 34.5057C0.309917 34.5057 0 33.8226 0 32.9795C0 32.1364 0.309291 31.4532 0.691836 31.4532C0.970448 31.4532 1.21024 31.8161 1.31981 32.34H12.1738C12.1738 32.34 29.2036 31.0442 31.1245 31.0442C33.0453 31.0442 38.5975 30.8644 39.0408 30.85H39.0415C39.049 30.85 39.0546 30.8494 39.0584 30.8494C39.0615 30.8494 39.0652 30.8494 39.0684 30.8494C39.583 30.8494 40 31.8036 40 32.9801V32.9795Z" fill="#CFA14C"/>
<g id="Group_3">
<path id="Vector_5" d="M18.5414 33.2169C18.5414 34.8056 18.1169 35.5681 17.6649 35.5681C17.2128 35.5681 16.9035 35.1453 16.7833 34.7082C16.6631 35.1453 16.3538 35.5681 15.9018 35.5681C15.4497 35.5681 15.0259 34.805 15.0259 33.2169H18.5414Z" fill="#C2687D"/>
<path id="Vector_6" d="M24.9754 33.2169C24.9754 34.8056 24.5509 35.5681 24.0988 35.5681C23.6468 35.5681 23.3375 35.1453 23.2173 34.7082C23.0971 35.1453 22.7878 35.5681 22.3357 35.5681C21.8837 35.5681 21.4598 34.805 21.4598 33.2169H24.9754Z" fill="#C2687D"/>
<path id="Vector_7" d="M35.9296 15.2577C35.8012 22.1708 31.2476 28.0041 24.9754 30.0587V33.2167H21.4599V30.7825C20.979 30.8262 20.4919 30.8486 19.9998 30.8486C19.5077 30.8486 19.0206 30.8262 18.5398 30.7825V33.2167H15.0242V30.058C8.75262 28.0035 4.19903 22.1701 4.07068 15.257L10.5865 4H29.4132L35.9296 15.2577Z" fill="#FFA6C6"/>
</g>
<g id="nose">
<path id="Vector_8" d="M19.9995 20.7105C13.4067 20.7105 12.7393 16.4241 12.7393 14.7592C12.7393 13.0943 14.3458 11.0341 19.9995 11.0341C25.6531 11.0341 27.2597 13.0943 27.2597 14.7592C27.2597 16.4241 26.5922 20.7105 19.9995 20.7105Z" fill="#FFC7D4"/>
<g id="Group_4">
<path id="Vector_9" d="M17.0013 16.4702C18.1075 16.4702 19.0042 15.5165 19.0042 14.34C19.0042 13.1636 18.1075 12.2099 17.0013 12.2099C15.8951 12.2099 14.9984 13.1636 14.9984 14.34C14.9984 15.5165 15.8951 16.4702 17.0013 16.4702Z" fill="#C2687D"/>
<path id="Vector_10" d="M22.9696 16.4701C24.0757 16.4701 24.9724 15.5164 24.9724 14.34C24.9724 13.1636 24.0757 12.2099 22.9696 12.2099C21.8634 12.2099 20.9667 13.1636 20.9667 14.34C20.9667 15.5164 21.8634 16.4701 22.9696 16.4701Z" fill="#C2687D"/>
</g>
</g>
<g id="cheeks">
<g id="Group_5">
<path id="Vector_11" d="M30.3883 18.8109C31.382 18.8109 32.1877 18.0073 32.1877 17.0161C32.1877 16.0249 31.382 15.2213 30.3883 15.2213C29.3945 15.2213 28.5889 16.0249 28.5889 17.0161C28.5889 18.0073 29.3945 18.8109 30.3883 18.8109Z" fill="#F75B5F"/>
<path id="Vector_12" d="M9.6119 18.8109C10.6057 18.8109 11.4113 18.0073 11.4113 17.0161C11.4113 16.0249 10.6057 15.2213 9.6119 15.2213C8.61812 15.2213 7.8125 16.0249 7.8125 17.0161C7.8125 18.0073 8.61812 18.8109 9.6119 18.8109Z" fill="#F75B5F"/>
</g>
</g>
<g id="eyes">
<path id="Vector_13" d="M25.6342 10.2946C26.5845 9.86185 27.2384 9.25671 27.0948 8.94296C26.9511 8.62922 26.0644 8.72569 25.1141 9.15844C24.1639 9.59118 23.51 10.1963 23.6536 10.5101C23.7972 10.8238 24.684 10.7273 25.6342 10.2946Z" fill="white"/>
<path id="Vector_14" d="M16.3428 10.5095C16.4864 10.1957 15.8325 9.5906 14.8823 9.15786C13.932 8.72512 13.0453 8.62865 12.9016 8.94239C12.758 9.25613 13.4119 9.86128 14.3622 10.294C15.3124 10.7268 16.1992 10.8232 16.3428 10.5095Z" fill="#FD0002"/>
</g>
</g>
</g>
<defs>
<clipPath id="clip0_2001_1662">
<rect width="40" height="40" fill="white"/>
</clipPath>
</defs>
</svg>
