<svg width="20" height="20" viewBox="0 0 20 20" fill="none" xmlns="http://www.w3.org/2000/svg">
<path fill-rule="evenodd" clip-rule="evenodd" d="M2.625 9.64167C2.625 10.1019 2.9981 10.475 3.45833 10.475C3.90556 10.4616 4.26239 10.0974 4.26667 9.65C4.30075 7.71832 5.44465 5.97912 7.20487 5.18275C8.96508 4.38638 11.0266 4.67535 12.5 5.925H12.2333C11.7731 5.925 11.4 6.2981 11.4 6.75834C11.4 7.21858 11.7731 7.59167 12.2333 7.59167H14.5917C15.0519 7.59167 15.425 7.21858 15.425 6.75834V4.4C15.425 3.93977 15.0519 3.56667 14.5917 3.56667C14.1314 3.56667 13.7583 3.93977 13.7583 4.4V4.76667C11.8126 3.01033 9.01828 2.55713 6.61722 3.6085C4.21615 4.65987 2.65398 7.02067 2.625 9.64167ZM14.8667 10.2333C14.8667 9.7731 15.2398 9.4 15.7 9.4C16.1538 9.40452 16.5205 9.77125 16.525 10.225C16.5528 12.0183 15.8487 13.7456 14.575 15.0083C12.0643 17.5064 8.03857 17.6052 5.40833 15.2333V15.6C5.40833 16.0602 5.03524 16.4333 4.575 16.4333C4.11476 16.4333 3.74167 16.0602 3.74167 15.6V13.2417C3.74167 12.7814 4.11476 12.4083 4.575 12.4083H6.95833C7.41857 12.4083 7.79167 12.7814 7.79167 13.2417C7.79167 13.7019 7.41857 14.075 6.95833 14.075H6.66667C8.15719 15.3165 10.2313 15.5838 11.9879 14.7609C13.7445 13.9379 14.8666 12.1732 14.8667 10.2333Z" fill="#664652"/>
</svg>
