<svg width="300" height="48" viewBox="0 0 218 48" fill="none" xmlns="http://www.w3.org/2000/svg">
<g clip-path="url(#clip0_293_6258)">
<path fill-rule="evenodd" clip-rule="evenodd" d="M0.361328 28.4168L19.5029 9.26033L38.8194 28.5823V19.3743L19.6778 0.00878906L0.378817 19.4353L0.361328 28.4168Z" fill="#181818"/>
<path fill-rule="evenodd" clip-rule="evenodd" d="M4.79468 33.1644L19.4242 47.9913L34.2198 33.1644L29.7076 28.5822L19.5029 38.8269L13.9851 33.1644L24.1024 22.8327L19.5728 18.355L4.79468 33.1644Z" fill="#181818"/>
<path d="M65.6648 38.0692C64.0646 38.0692 62.6392 37.8862 61.3888 37.5116C60.1383 37.137 59.089 36.4488 58.2408 35.4557C57.3926 34.4626 56.7455 33.0427 56.2908 31.1958C55.8448 29.3316 55.6174 26.9098 55.6174 23.9479C55.6174 21.0819 55.8448 18.7385 56.2908 16.9265C56.763 15.1058 57.4363 13.6859 58.3107 12.6666C59.1852 11.6474 60.2432 10.933 61.4937 10.541C62.7442 10.1403 64.152 9.93994 65.726 9.93994C67.5711 9.93994 69.25 10.088 70.7453 10.3842C72.2669 10.6543 73.4824 10.9418 74.383 11.2467V15.5414C73.7097 15.3933 72.6866 15.2539 71.3137 15.132C69.9671 14.9839 68.4893 14.9055 66.889 14.9055C65.8397 14.9055 64.939 15.0274 64.1957 15.28C63.47 15.5065 62.8841 15.9421 62.4381 16.5868C62.0096 17.214 61.6861 18.12 61.4675 19.3134C61.2663 20.5069 61.1702 22.0663 61.1702 23.9828C61.1702 26.4742 61.3363 28.382 61.6598 29.6975C61.9834 30.9955 62.5605 31.8928 63.3825 32.3893C64.2045 32.8597 65.385 33.0949 66.9065 33.0949C68.7778 33.0949 70.3169 33.0601 71.5149 32.9817C72.7128 32.9033 73.6747 32.8162 74.4005 32.7203V36.9802C73.3774 37.3287 72.1357 37.6075 70.6929 37.7991C69.2588 37.982 67.5886 38.0692 65.6648 38.0692Z" fill="black"/>
<path d="M88.6366 38.0691C86.739 38.0691 85.0776 37.8949 83.6522 37.5464C82.2269 37.1718 81.0464 36.501 80.0932 35.5253C79.1488 34.5322 78.423 33.1123 77.9246 31.2655C77.4524 29.4186 77.2163 27.0143 77.2163 24.0524C77.2163 21.0905 77.4524 18.6861 77.9246 16.8393C78.423 14.9751 79.1488 13.5377 80.0932 12.5446C81.0639 11.5515 82.2531 10.8633 83.6522 10.4887C85.0776 10.1141 86.739 9.93115 88.6366 9.93115C90.5341 9.93115 92.1956 10.1141 93.6209 10.4887C95.0463 10.8633 96.2268 11.5515 97.1799 12.5446C98.1243 13.5377 98.8413 14.9751 99.3135 16.8393C99.7857 18.6861 100.022 21.0905 100.022 24.0524C100.022 27.0143 99.7857 29.4186 99.3135 31.2655C98.8413 33.1123 98.1243 34.5322 97.1799 35.5253C96.2268 36.4923 95.0288 37.1718 93.5859 37.5464C92.1606 37.8949 90.5079 38.0691 88.6366 38.0691ZM88.6366 33.1036C89.7384 33.1036 90.6565 32.9903 91.4086 32.7638C92.1868 32.5112 92.7814 32.0669 93.2099 31.4223C93.6559 30.7776 93.9882 29.8629 94.1806 28.6956C94.3817 27.5021 94.4779 25.9515 94.4779 24.0611C94.4779 22.0923 94.3817 20.5068 94.1806 19.3134C93.9794 18.0938 93.6559 17.1704 93.2099 16.5518C92.764 15.9072 92.1606 15.4716 91.4086 15.2451C90.6565 15.0186 89.7384 14.9054 88.6366 14.9054C87.5348 14.9054 86.6166 15.0186 85.8646 15.2451C85.1388 15.4716 84.5442 15.9072 84.0632 16.5518C83.6172 17.1704 83.2762 18.0938 83.0489 19.3134C82.8477 20.5068 82.7515 22.0923 82.7515 24.0611C82.7515 25.9515 82.839 27.5021 83.0139 28.6956C83.215 29.8629 83.5385 30.7776 83.9845 31.4223C84.4305 32.0669 85.0339 32.5199 85.7859 32.7638C86.5379 32.9903 87.4823 33.1036 88.6366 33.1036Z" fill="black"/>
<path d="M104.307 37.8425V10.1924H108.766L120.379 28.4254V10.1924H125.923V37.8425H121.463L109.886 19.6094V37.8425H104.307Z" fill="black"/>
<path d="M130.496 37.8425V16.5082C130.496 14.8617 130.82 13.5811 131.467 12.6577C132.114 11.7343 132.927 11.0984 133.906 10.7499C134.877 10.3753 135.856 10.1924 136.827 10.1924C137.728 10.1924 138.838 10.2011 140.159 10.2272C141.505 10.2534 142.931 10.2969 144.426 10.3753C145.948 10.4276 147.408 10.5234 148.807 10.6715V15.306H138.357C137.579 15.306 136.993 15.5151 136.6 15.9419C136.224 16.3427 136.04 16.8653 136.04 17.51V22.2577L147.014 22.5539V26.927L136.04 27.2232V37.8338L130.496 37.8425Z" fill="black"/>
<path d="M158.898 37.8425C156.721 37.8425 155.086 37.3459 153.993 36.3441C152.891 35.351 152.34 33.661 152.34 31.3002V10.1924H157.884V30.4116C157.884 31.335 158.111 31.971 158.557 32.3194C159.029 32.6679 159.633 32.8421 160.359 32.8421H169.129V37.8512H158.898V37.8425Z" fill="black"/>
<path d="M182.298 38.0341C180.751 38.0341 179.316 37.9122 177.987 37.6595C176.684 37.3895 175.539 36.9278 174.542 36.2744C173.571 35.6036 172.811 34.6802 172.26 33.5129C171.735 32.3194 171.473 30.7949 171.473 28.9568V10.1924H177.017V28.9133C177.017 30.4378 177.48 31.5005 178.407 32.1278C179.334 32.7463 180.628 33.0599 182.307 33.0599C183.96 33.0599 185.245 32.7463 186.163 32.1278C187.09 31.5005 187.554 30.4378 187.554 28.9133V10.1924H193.133V28.9481C193.133 30.7949 192.862 32.3107 192.311 33.5042C191.76 34.6715 190.999 35.5949 190.028 36.2657C189.058 36.9103 187.903 37.3721 186.583 37.6508C185.245 37.9122 183.82 38.0341 182.298 38.0341Z" fill="black"/>
<path d="M195.52 37.8425L204.02 23.9826L195.406 10.1924H201.554L207.474 19.6443L212.869 10.1924H218.973L210.351 24.2788L218.859 37.8425H212.712L206.949 28.6171L201.659 37.8425H195.52Z" fill="black"/>
</g>
<defs>
<clipPath id="clip0_293_6258">
<rect width="218.611" height="48" fill="white" transform="translate(0.361328)"/>
</clipPath>
</defs>
</svg>
