<svg width="300" height="48" viewBox="5 5 143 48" fill="none" xmlns="http://www.w3.org/2000/svg">
<g id="U hack 1" clip-path="url(#clip0_293_6008)">
<path id="Vector" d="M14.0223 4.34546H11.8496V6.51813H14.0223V4.34546Z" fill="#01FF00"/>
<path id="Vector_2" d="M16.1951 4.34546H14.0225V6.51813H16.1951V4.34546Z" fill="#01FF00"/>
<path id="Vector_3" d="M18.3677 4.34546H16.1951V6.51813H18.3677V4.34546Z" fill="#01FF00"/>
<path id="Vector_4" d="M20.5403 4.34546H18.3677V6.51813H20.5403V4.34546Z" fill="#01FF00"/>
<path id="Vector_5" d="M22.7129 4.34546H20.5403V6.51813H22.7129V4.34546Z" fill="#01FF00"/>
<path id="Vector_6" d="M33.5762 4.34546H31.4036V6.51813H33.5762V4.34546Z" fill="#01FF00"/>
<path id="Vector_7" d="M35.7491 4.34546H33.5764V6.51813H35.7491V4.34546Z" fill="#01FF00"/>
<path id="Vector_8" d="M37.9217 4.34546H35.749V6.51813H37.9217V4.34546Z" fill="#01FF00"/>
<path id="Vector_9" d="M40.0945 4.34546H37.9219V6.51813H40.0945V4.34546Z" fill="#01FF00"/>
<path id="Vector_10" d="M42.2669 4.34546H40.0942V6.51813H42.2669V4.34546Z" fill="#01FF00"/>
<path id="Vector_11" d="M44.4398 4.34546H42.2671V6.51813H44.4398V4.34546Z" fill="#01FF00"/>
<path id="Vector_12" d="M11.8497 6.51807H9.677V8.69073H11.8497V6.51807Z" fill="#01FF00"/>
<path id="Vector_13" d="M14.0223 6.51807H11.8496V8.69073H14.0223V6.51807Z" fill="#FF006E"/>
<path id="Vector_14" d="M16.1951 6.51807H14.0225V8.69073H16.1951V6.51807Z" fill="#FF006E"/>
<path id="Vector_15" d="M18.3677 6.51807H16.1951V8.69073H18.3677V6.51807Z" fill="#FF006E"/>
<path id="Vector_16" d="M20.5403 6.51807H18.3677V8.69073H20.5403V6.51807Z" fill="#FF006E"/>
<path id="Vector_17" d="M22.7129 6.51807H20.5403V8.69073H22.7129V6.51807Z" fill="#01FF00"/>
<path id="Vector_18" d="M24.8858 6.51807H22.7131V8.69073H24.8858V6.51807Z" fill="#01FF00"/>
<path id="Vector_19" d="M31.4036 6.51807H29.231V8.69073H31.4036V6.51807Z" fill="#01FF00"/>
<path id="Vector_20" d="M33.5762 6.51807H31.4036V8.69073H33.5762V6.51807Z" fill="#FF006E"/>
<path id="Vector_21" d="M35.7491 6.51807H33.5764V8.69073H35.7491V6.51807Z" fill="#FF006E"/>
<path id="Vector_22" d="M37.9217 6.51807H35.749V8.69073H37.9217V6.51807Z" fill="#FF006E"/>
<path id="Vector_23" d="M40.0945 6.51807H37.9219V8.69073H40.0945V6.51807Z" fill="#FF006E"/>
<path id="Vector_24" d="M42.2669 6.51807H40.0942V8.69073H42.2669V6.51807Z" fill="#FF006E"/>
<path id="Vector_25" d="M44.4398 6.51807H42.2671V8.69073H44.4398V6.51807Z" fill="#01FF00"/>
<path id="Vector_26" d="M46.6121 6.51807H44.4395V8.69073H46.6121V6.51807Z" fill="#01FF00"/>
<path id="Vector_27" d="M9.67706 8.69067H7.50439V10.8633H9.67706V8.69067Z" fill="#01FF00"/>
<path id="Vector_28" d="M11.8497 8.69067H9.677V10.8633H11.8497V8.69067Z" fill="#FF006E"/>
<path id="Vector_29" d="M14.0223 8.69067H11.8496V10.8633H14.0223V8.69067Z" fill="#FF006E"/>
<path id="Vector_30" d="M16.1951 8.69067H14.0225V10.8633H16.1951V8.69067Z" fill="#FF006E"/>
<path id="Vector_31" d="M18.3677 8.69067H16.1951V10.8633H18.3677V8.69067Z" fill="#FF006E"/>
<path id="Vector_32" d="M20.5403 8.69067H18.3677V10.8633H20.5403V8.69067Z" fill="#01FF00"/>
<path id="Vector_33" d="M22.7129 8.69067H20.5403V10.8633H22.7129V8.69067Z" fill="#FF006E"/>
<path id="Vector_34" d="M24.8858 8.69067H22.7131V10.8633H24.8858V8.69067Z" fill="#01FF00"/>
<path id="Vector_35" d="M29.231 8.69067H27.0583V10.8633H29.231V8.69067Z" fill="#01FF00"/>
<path id="Vector_36" d="M31.4036 8.69067H29.231V10.8633H31.4036V8.69067Z" fill="#FF006E"/>
<path id="Vector_37" d="M33.5762 8.69067H31.4036V10.8633H33.5762V8.69067Z" fill="#FF006E"/>
<path id="Vector_38" d="M35.7491 8.69067H33.5764V10.8633H35.7491V8.69067Z" fill="#FF006E"/>
<path id="Vector_39" d="M37.9217 8.69067H35.749V10.8633H37.9217V8.69067Z" fill="#FF006E"/>
<path id="Vector_40" d="M40.0945 8.69067H37.9219V10.8633H40.0945V8.69067Z" fill="#FF006E"/>
<path id="Vector_41" d="M42.2669 8.69067H40.0942V10.8633H42.2669V8.69067Z" fill="#01FF00"/>
<path id="Vector_42" d="M44.4398 8.69067H42.2671V10.8633H44.4398V8.69067Z" fill="#FF006E"/>
<path id="Vector_43" d="M46.6121 8.69067H44.4395V10.8633H46.6121V8.69067Z" fill="#01FF00"/>
<path id="Vector_44" d="M7.50421 10.8633H5.33154V13.0359H7.50421V10.8633Z" fill="#01FF00"/>
<path id="Vector_45" d="M9.67706 10.8633H7.50439V13.0359H9.67706V10.8633Z" fill="#FF006E"/>
<path id="Vector_46" d="M11.8497 10.8633H9.677V13.0359H11.8497V10.8633Z" fill="#FF006E"/>
<path id="Vector_47" d="M14.0223 10.8633H11.8496V13.0359H14.0223V10.8633Z" fill="#FF006E"/>
<path id="Vector_48" d="M16.1951 10.8633H14.0225V13.0359H16.1951V10.8633Z" fill="#FF006E"/>
<path id="Vector_49" d="M18.3677 10.8633H16.1951V13.0359H18.3677V10.8633Z" fill="#01FF00"/>
<path id="Vector_50" d="M20.5403 10.8633H18.3677V13.0359H20.5403V10.8633Z" fill="#FF006E"/>
<path id="Vector_51" d="M22.7129 10.8633H20.5403V13.0359H22.7129V10.8633Z" fill="#FF006E"/>
<path id="Vector_52" d="M24.8858 10.8633H22.7131V13.0359H24.8858V10.8633Z" fill="#01FF00"/>
<path id="Vector_53" d="M29.231 10.8633H27.0583V13.0359H29.231V10.8633Z" fill="#01FF00"/>
<path id="Vector_54" d="M31.4036 10.8633H29.231V13.0359H31.4036V10.8633Z" fill="#FF006E"/>
<path id="Vector_55" d="M33.5762 10.8633H31.4036V13.0359H33.5762V10.8633Z" fill="#FF006E"/>
<path id="Vector_56" d="M35.7491 10.8633H33.5764V13.0359H35.7491V10.8633Z" fill="#FF006E"/>
<path id="Vector_57" d="M37.9217 10.8633H35.749V13.0359H37.9217V10.8633Z" fill="#FF006E"/>
<path id="Vector_58" d="M40.0945 10.8633H37.9219V13.0359H40.0945V10.8633Z" fill="#01FF00"/>
<path id="Vector_59" d="M42.2669 10.8633H40.0942V13.0359H42.2669V10.8633Z" fill="#FF006E"/>
<path id="Vector_60" d="M44.4398 10.8633H42.2671V13.0359H44.4398V10.8633Z" fill="#FF006E"/>
<path id="Vector_61" d="M46.6121 10.8633H44.4395V13.0359H46.6121V10.8633Z" fill="#01FF00"/>
<path id="Vector_62" d="M7.50421 13.0361H5.33154V15.2088H7.50421V13.0361Z" fill="#01FF00"/>
<path id="Vector_63" d="M9.67706 13.0361H7.50439V15.2088H9.67706V13.0361Z" fill="#01FF00"/>
<path id="Vector_64" d="M11.8497 13.0361H9.677V15.2088H11.8497V13.0361Z" fill="#01FF00"/>
<path id="Vector_65" d="M14.0223 13.0361H11.8496V15.2088H14.0223V13.0361Z" fill="#01FF00"/>
<path id="Vector_66" d="M16.1951 13.0361H14.0225V15.2088H16.1951V13.0361Z" fill="#01FF00"/>
<path id="Vector_67" d="M18.3677 13.0361H16.1951V15.2088H18.3677V13.0361Z" fill="#FF006E"/>
<path id="Vector_68" d="M20.5403 13.0361H18.3677V15.2088H20.5403V13.0361Z" fill="#FF006E"/>
<path id="Vector_69" d="M22.7129 13.0361H20.5403V15.2088H22.7129V13.0361Z" fill="#FF006E"/>
<path id="Vector_70" d="M24.8858 13.0361H22.7131V15.2088H24.8858V13.0361Z" fill="#01FF00"/>
<path id="Vector_71" d="M29.231 13.0361H27.0583V15.2088H29.231V13.0361Z" fill="#01FF00"/>
<path id="Vector_72" d="M31.4036 13.0361H29.231V15.2088H31.4036V13.0361Z" fill="#01FF00"/>
<path id="Vector_73" d="M33.5762 13.0361H31.4036V15.2088H33.5762V13.0361Z" fill="#01FF00"/>
<path id="Vector_74" d="M35.7491 13.0361H33.5764V15.2088H35.7491V13.0361Z" fill="#01FF00"/>
<path id="Vector_75" d="M37.9217 13.0361H35.749V15.2088H37.9217V13.0361Z" fill="#01FF00"/>
<path id="Vector_76" d="M40.0945 13.0361H37.9219V15.2088H40.0945V13.0361Z" fill="#FF006E"/>
<path id="Vector_77" d="M42.2669 13.0361H40.0942V15.2088H42.2669V13.0361Z" fill="#FF006E"/>
<path id="Vector_78" d="M44.4398 13.0361H42.2671V15.2088H44.4398V13.0361Z" fill="#FF006E"/>
<path id="Vector_79" d="M46.6121 13.0361H44.4395V15.2088H46.6121V13.0361Z" fill="#01FF00"/>
<path id="Vector_80" d="M7.50421 15.2087H5.33154V17.3814H7.50421V15.2087Z" fill="#01FF00"/>
<path id="Vector_81" d="M16.1951 15.2087H14.0225V17.3814H16.1951V15.2087Z" fill="#01FF00"/>
<path id="Vector_82" d="M18.3677 15.2087H16.1951V17.3814H18.3677V15.2087Z" fill="#FF006E"/>
<path id="Vector_83" d="M20.5403 15.2087H18.3677V17.3814H20.5403V15.2087Z" fill="#FF006E"/>
<path id="Vector_84" d="M22.7129 15.2087H20.5403V17.3814H22.7129V15.2087Z" fill="#FF006E"/>
<path id="Vector_85" d="M24.8858 15.2087H22.7131V17.3814H24.8858V15.2087Z" fill="#01FF00"/>
<path id="Vector_86" d="M29.231 15.2087H27.0583V17.3814H29.231V15.2087Z" fill="#01FF00"/>
<path id="Vector_87" d="M37.9217 15.2087H35.749V17.3814H37.9217V15.2087Z" fill="#01FF00"/>
<path id="Vector_88" d="M40.0945 15.2087H37.9219V17.3814H40.0945V15.2087Z" fill="#FF006E"/>
<path id="Vector_89" d="M42.2669 15.2087H40.0942V17.3814H42.2669V15.2087Z" fill="#FF006E"/>
<path id="Vector_90" d="M44.4398 15.2087H42.2671V17.3814H44.4398V15.2087Z" fill="#FF006E"/>
<path id="Vector_91" d="M46.6121 15.2087H44.4395V17.3814H46.6121V15.2087Z" fill="#01FF00"/>
<path id="Vector_92" d="M7.50421 17.3813H5.33154V19.554H7.50421V17.3813Z" fill="#01FF00"/>
<path id="Vector_93" d="M16.1951 17.3813H14.0225V19.554H16.1951V17.3813Z" fill="#01FF00"/>
<path id="Vector_94" d="M18.3677 17.3813H16.1951V19.554H18.3677V17.3813Z" fill="#FF006E"/>
<path id="Vector_95" d="M20.5403 17.3813H18.3677V19.554H20.5403V17.3813Z" fill="#FF006E"/>
<path id="Vector_96" d="M22.7129 17.3813H20.5403V19.554H22.7129V17.3813Z" fill="#FF006E"/>
<path id="Vector_97" d="M24.8858 17.3813H22.7131V19.554H24.8858V17.3813Z" fill="#01FF00"/>
<path id="Vector_98" d="M29.231 17.3813H27.0583V19.554H29.231V17.3813Z" fill="#01FF00"/>
<path id="Vector_99" d="M37.9217 17.3813H35.749V19.554H37.9217V17.3813Z" fill="#01FF00"/>
<path id="Vector_100" d="M40.0945 17.3813H37.9219V19.554H40.0945V17.3813Z" fill="#FF006E"/>
<path id="Vector_101" d="M42.2669 17.3813H40.0942V19.554H42.2669V17.3813Z" fill="#FF006E"/>
<path id="Vector_102" d="M44.4398 17.3813H42.2671V19.554H44.4398V17.3813Z" fill="#FF006E"/>
<path id="Vector_103" d="M46.6121 17.3813H44.4395V19.554H46.6121V17.3813Z" fill="#01FF00"/>
<path id="Vector_104" d="M7.50421 19.554H5.33154V21.7266H7.50421V19.554Z" fill="#01FF00"/>
<path id="Vector_105" d="M16.1951 19.554H14.0225V21.7266H16.1951V19.554Z" fill="#01FF00"/>
<path id="Vector_106" d="M18.3677 19.554H16.1951V21.7266H18.3677V19.554Z" fill="#FF006E"/>
<path id="Vector_107" d="M20.5403 19.554H18.3677V21.7266H20.5403V19.554Z" fill="#FF006E"/>
<path id="Vector_108" d="M22.7129 19.554H20.5403V21.7266H22.7129V19.554Z" fill="#FF006E"/>
<path id="Vector_109" d="M24.8858 19.554H22.7131V21.7266H24.8858V19.554Z" fill="#01FF00"/>
<path id="Vector_110" d="M29.231 19.554H27.0583V21.7266H29.231V19.554Z" fill="#01FF00"/>
<path id="Vector_111" d="M37.9217 19.554H35.749V21.7266H37.9217V19.554Z" fill="#01FF00"/>
<path id="Vector_112" d="M40.0945 19.554H37.9219V21.7266H40.0945V19.554Z" fill="#FF006E"/>
<path id="Vector_113" d="M42.2669 19.554H40.0942V21.7266H42.2669V19.554Z" fill="#FF006E"/>
<path id="Vector_114" d="M44.4398 19.554H42.2671V21.7266H44.4398V19.554Z" fill="#FF006E"/>
<path id="Vector_115" d="M46.6121 19.554H44.4395V21.7266H46.6121V19.554Z" fill="#01FF00"/>
<path id="Vector_116" d="M7.50421 21.7266H5.33154V23.8992H7.50421V21.7266Z" fill="#01FF00"/>
<path id="Vector_117" d="M16.1951 21.7266H14.0225V23.8992H16.1951V21.7266Z" fill="#01FF00"/>
<path id="Vector_118" d="M18.3677 21.7266H16.1951V23.8992H18.3677V21.7266Z" fill="#FF006E"/>
<path id="Vector_119" d="M20.5403 21.7266H18.3677V23.8992H20.5403V21.7266Z" fill="#FF006E"/>
<path id="Vector_120" d="M22.7129 21.7266H20.5403V23.8992H22.7129V21.7266Z" fill="#FF006E"/>
<path id="Vector_121" d="M24.8858 21.7266H22.7131V23.8992H24.8858V21.7266Z" fill="#01FF00"/>
<path id="Vector_122" d="M29.231 21.7266H27.0583V23.8992H29.231V21.7266Z" fill="#01FF00"/>
<path id="Vector_123" d="M37.9217 21.7266H35.749V23.8992H37.9217V21.7266Z" fill="#01FF00"/>
<path id="Vector_124" d="M40.0945 21.7266H37.9219V23.8992H40.0945V21.7266Z" fill="#FF006E"/>
<path id="Vector_125" d="M42.2669 21.7266H40.0942V23.8992H42.2669V21.7266Z" fill="#FF006E"/>
<path id="Vector_126" d="M44.4398 21.7266H42.2671V23.8992H44.4398V21.7266Z" fill="#FF006E"/>
<path id="Vector_127" d="M46.6121 21.7266H44.4395V23.8992H46.6121V21.7266Z" fill="#01FF00"/>
<path id="Vector_128" d="M7.50421 23.8992H5.33154V26.0718H7.50421V23.8992Z" fill="#01FF00"/>
<path id="Vector_129" d="M16.1951 23.8992H14.0225V26.0718H16.1951V23.8992Z" fill="#01FF00"/>
<path id="Vector_130" d="M18.3677 23.8992H16.1951V26.0718H18.3677V23.8992Z" fill="#FF006E"/>
<path id="Vector_131" d="M20.5403 23.8992H18.3677V26.0718H20.5403V23.8992Z" fill="#FF006E"/>
<path id="Vector_132" d="M22.7129 23.8992H20.5403V26.0718H22.7129V23.8992Z" fill="#FF006E"/>
<path id="Vector_133" d="M24.8858 23.8992H22.7131V26.0718H24.8858V23.8992Z" fill="#01FF00"/>
<path id="Vector_134" d="M29.231 23.8992H27.0583V26.0718H29.231V23.8992Z" fill="#01FF00"/>
<path id="Vector_135" d="M37.9217 23.8992H35.749V26.0718H37.9217V23.8992Z" fill="#01FF00"/>
<path id="Vector_136" d="M40.0945 23.8992H37.9219V26.0718H40.0945V23.8992Z" fill="#FF006E"/>
<path id="Vector_137" d="M42.2669 23.8992H40.0942V26.0718H42.2669V23.8992Z" fill="#FF006E"/>
<path id="Vector_138" d="M44.4398 23.8992H42.2671V26.0718H44.4398V23.8992Z" fill="#FF006E"/>
<path id="Vector_139" d="M46.6121 23.8992H44.4395V26.0718H46.6121V23.8992Z" fill="#01FF00"/>
<path id="Vector_140" d="M7.50421 26.072H5.33154V28.2447H7.50421V26.072Z" fill="#01FF00"/>
<path id="Vector_141" d="M16.1951 26.072H14.0225V28.2447H16.1951V26.072Z" fill="#01FF00"/>
<path id="Vector_142" d="M18.3677 26.072H16.1951V28.2447H18.3677V26.072Z" fill="#FF006E"/>
<path id="Vector_143" d="M20.5403 26.072H18.3677V28.2447H20.5403V26.072Z" fill="#FF006E"/>
<path id="Vector_144" d="M22.7129 26.072H20.5403V28.2447H22.7129V26.072Z" fill="#FF006E"/>
<path id="Vector_145" d="M24.8858 26.072H22.7131V28.2447H24.8858V26.072Z" fill="#01FF00"/>
<path id="Vector_146" d="M29.231 26.072H27.0583V28.2447H29.231V26.072Z" fill="#01FF00"/>
<path id="Vector_147" d="M37.9217 26.072H35.749V28.2447H37.9217V26.072Z" fill="#01FF00"/>
<path id="Vector_148" d="M40.0945 26.072H37.9219V28.2447H40.0945V26.072Z" fill="#FF006E"/>
<path id="Vector_149" d="M42.2669 26.072H40.0942V28.2447H42.2669V26.072Z" fill="#FF006E"/>
<path id="Vector_150" d="M44.4398 26.072H42.2671V28.2447H44.4398V26.072Z" fill="#FF006E"/>
<path id="Vector_151" d="M46.6121 26.072H44.4395V28.2447H46.6121V26.072Z" fill="#01FF00"/>
<path id="Vector_152" d="M7.50421 28.2446H5.33154V30.4173H7.50421V28.2446Z" fill="#01FF00"/>
<path id="Vector_153" d="M16.1951 28.2446H14.0225V30.4173H16.1951V28.2446Z" fill="#01FF00"/>
<path id="Vector_154" d="M18.3677 28.2446H16.1951V30.4173H18.3677V28.2446Z" fill="#FF006E"/>
<path id="Vector_155" d="M20.5403 28.2446H18.3677V30.4173H20.5403V28.2446Z" fill="#FF006E"/>
<path id="Vector_156" d="M22.7129 28.2446H20.5403V30.4173H22.7129V28.2446Z" fill="#FF006E"/>
<path id="Vector_157" d="M24.8858 28.2446H22.7131V30.4173H24.8858V28.2446Z" fill="#01FF00"/>
<path id="Vector_158" d="M27.0582 28.2446H24.8855V30.4173H27.0582V28.2446Z" fill="#01FF00"/>
<path id="Vector_159" d="M29.231 28.2446H27.0583V30.4173H29.231V28.2446Z" fill="#01FF00"/>
<path id="Vector_160" d="M37.9217 28.2446H35.749V30.4173H37.9217V28.2446Z" fill="#01FF00"/>
<path id="Vector_161" d="M40.0945 28.2446H37.9219V30.4173H40.0945V28.2446Z" fill="#FF006E"/>
<path id="Vector_162" d="M42.2669 28.2446H40.0942V30.4173H42.2669V28.2446Z" fill="#FF006E"/>
<path id="Vector_163" d="M44.4398 28.2446H42.2671V30.4173H44.4398V28.2446Z" fill="#FF006E"/>
<path id="Vector_164" d="M46.6121 28.2446H44.4395V30.4173H46.6121V28.2446Z" fill="#01FF00"/>
<path id="Vector_165" d="M7.50421 30.4172H5.33154V32.5899H7.50421V30.4172Z" fill="#01FF00"/>
<path id="Vector_166" d="M16.1951 30.4172H14.0225V32.5899H16.1951V30.4172Z" fill="#01FF00"/>
<path id="Vector_167" d="M18.3677 30.4172H16.1951V32.5899H18.3677V30.4172Z" fill="#FF006E"/>
<path id="Vector_168" d="M20.5403 30.4172H18.3677V32.5899H20.5403V30.4172Z" fill="#FF006E"/>
<path id="Vector_169" d="M22.7129 30.4172H20.5403V32.5899H22.7129V30.4172Z" fill="#01FF00"/>
<path id="Vector_170" d="M24.8858 30.4172H22.7131V32.5899H24.8858V30.4172Z" fill="#FF006E"/>
<path id="Vector_171" d="M27.0582 30.4172H24.8855V32.5899H27.0582V30.4172Z" fill="#FF006E"/>
<path id="Vector_172" d="M29.231 30.4172H27.0583V32.5899H29.231V30.4172Z" fill="#01FF00"/>
<path id="Vector_173" d="M37.9217 30.4172H35.749V32.5899H37.9217V30.4172Z" fill="#01FF00"/>
<path id="Vector_174" d="M40.0945 30.4172H37.9219V32.5899H40.0945V30.4172Z" fill="#FF006E"/>
<path id="Vector_175" d="M42.2669 30.4172H40.0942V32.5899H42.2669V30.4172Z" fill="#FF006E"/>
<path id="Vector_176" d="M44.4398 30.4172H42.2671V32.5899H44.4398V30.4172Z" fill="#FF006E"/>
<path id="Vector_177" d="M46.6121 30.4172H44.4395V32.5899H46.6121V30.4172Z" fill="#01FF00"/>
<path id="Vector_178" d="M7.50421 32.5901H5.33154V34.7628H7.50421V32.5901Z" fill="#01FF00"/>
<path id="Vector_179" d="M16.1951 32.5901H14.0225V34.7628H16.1951V32.5901Z" fill="#01FF00"/>
<path id="Vector_180" d="M18.3677 32.5901H16.1951V34.7628H18.3677V32.5901Z" fill="#FF006E"/>
<path id="Vector_181" d="M20.5403 32.5901H18.3677V34.7628H20.5403V32.5901Z" fill="#01FF00"/>
<path id="Vector_182" d="M22.7129 32.5901H20.5403V34.7628H22.7129V32.5901Z" fill="#FF006E"/>
<path id="Vector_183" d="M24.8858 32.5901H22.7131V34.7628H24.8858V32.5901Z" fill="#FF006E"/>
<path id="Vector_184" d="M27.0582 32.5901H24.8855V34.7628H27.0582V32.5901Z" fill="#FF006E"/>
<path id="Vector_185" d="M29.231 32.5901H27.0583V34.7628H29.231V32.5901Z" fill="#01FF00"/>
<path id="Vector_186" d="M37.9217 32.5901H35.749V34.7628H37.9217V32.5901Z" fill="#01FF00"/>
<path id="Vector_187" d="M40.0945 32.5901H37.9219V34.7628H40.0945V32.5901Z" fill="#FF006E"/>
<path id="Vector_188" d="M42.2669 32.5901H40.0942V34.7628H42.2669V32.5901Z" fill="#FF006E"/>
<path id="Vector_189" d="M44.4398 32.5901H42.2671V34.7628H44.4398V32.5901Z" fill="#FF006E"/>
<path id="Vector_190" d="M46.6121 32.5901H44.4395V34.7628H46.6121V32.5901Z" fill="#01FF00"/>
<path id="Vector_191" d="M7.50421 34.7627H5.33154V36.9354H7.50421V34.7627Z" fill="#01FF00"/>
<path id="Vector_192" d="M16.1951 34.7627H14.0225V36.9354H16.1951V34.7627Z" fill="#01FF00"/>
<path id="Vector_193" d="M18.3677 34.7627H16.1951V36.9354H18.3677V34.7627Z" fill="#01FF00"/>
<path id="Vector_194" d="M20.5403 34.7627H18.3677V36.9354H20.5403V34.7627Z" fill="#FF006E"/>
<path id="Vector_195" d="M22.7129 34.7627H20.5403V36.9354H22.7129V34.7627Z" fill="#FF006E"/>
<path id="Vector_196" d="M24.8858 34.7627H22.7131V36.9354H24.8858V34.7627Z" fill="#FF006E"/>
<path id="Vector_197" d="M27.0582 34.7627H24.8855V36.9354H27.0582V34.7627Z" fill="#FF006E"/>
<path id="Vector_198" d="M29.231 34.7627H27.0583V36.9354H29.231V34.7627Z" fill="#01FF00"/>
<path id="Vector_199" d="M37.9217 34.7627H35.749V36.9354H37.9217V34.7627Z" fill="#01FF00"/>
<path id="Vector_200" d="M40.0945 34.7627H37.9219V36.9354H40.0945V34.7627Z" fill="#FF006E"/>
<path id="Vector_201" d="M42.2669 34.7627H40.0942V36.9354H42.2669V34.7627Z" fill="#FF006E"/>
<path id="Vector_202" d="M44.4398 34.7627H42.2671V36.9354H44.4398V34.7627Z" fill="#FF006E"/>
<path id="Vector_203" d="M46.6121 34.7627H44.4395V36.9354H46.6121V34.7627Z" fill="#01FF00"/>
<path id="Vector_204" d="M7.50421 36.9353H5.33154V39.108H7.50421V36.9353Z" fill="#01FF00"/>
<path id="Vector_205" d="M16.1951 36.9353H14.0225V39.108H16.1951V36.9353Z" fill="#FF006E"/>
<path id="Vector_206" d="M18.3677 36.9353H16.1951V39.108H18.3677V36.9353Z" fill="#01FF00"/>
<path id="Vector_207" d="M20.5403 36.9353H18.3677V39.108H20.5403V36.9353Z" fill="#01FF00"/>
<path id="Vector_208" d="M22.7129 36.9353H20.5403V39.108H22.7129V36.9353Z" fill="#01FF00"/>
<path id="Vector_209" d="M24.8858 36.9353H22.7131V39.108H24.8858V36.9353Z" fill="#01FF00"/>
<path id="Vector_210" d="M27.0582 36.9353H24.8855V39.108H27.0582V36.9353Z" fill="#01FF00"/>
<path id="Vector_211" d="M29.231 36.9353H27.0583V39.108H29.231V36.9353Z" fill="#01FF00"/>
<path id="Vector_212" d="M37.9217 36.9353H35.749V39.108H37.9217V36.9353Z" fill="#01FF00"/>
<path id="Vector_213" d="M40.0945 36.9353H37.9219V39.108H40.0945V36.9353Z" fill="#FF006E"/>
<path id="Vector_214" d="M42.2669 36.9353H40.0942V39.108H42.2669V36.9353Z" fill="#FF006E"/>
<path id="Vector_215" d="M44.4398 36.9353H42.2671V39.108H44.4398V36.9353Z" fill="#FF006E"/>
<path id="Vector_216" d="M46.6121 36.9353H44.4395V39.108H46.6121V36.9353Z" fill="#01FF00"/>
<path id="Vector_217" d="M7.50421 39.1079H5.33154V41.2806H7.50421V39.1079Z" fill="#01FF00"/>
<path id="Vector_218" d="M9.67706 39.1079H7.50439V41.2806H9.67706V39.1079Z" fill="#01FF00"/>
<path id="Vector_219" d="M11.8497 39.1079H9.677V41.2806H11.8497V39.1079Z" fill="#01FF00"/>
<path id="Vector_220" d="M37.9217 39.1079H35.749V41.2806H37.9217V39.1079Z" fill="#01FF00"/>
<path id="Vector_221" d="M40.0945 39.1079H37.9219V41.2806H40.0945V39.1079Z" fill="#FF006E"/>
<path id="Vector_222" d="M42.2669 39.1079H40.0942V41.2806H42.2669V39.1079Z" fill="#FF006E"/>
<path id="Vector_223" d="M44.4398 39.1079H42.2671V41.2806H44.4398V39.1079Z" fill="#01FF00"/>
<path id="Vector_224" d="M11.8497 41.2808H9.677V43.4534H11.8497V41.2808Z" fill="#01FF00"/>
<path id="Vector_225" d="M37.9217 41.2808H35.749V43.4534H37.9217V41.2808Z" fill="#01FF00"/>
<path id="Vector_226" d="M40.0945 41.2808H37.9219V43.4534H40.0945V41.2808Z" fill="#FF006E"/>
<path id="Vector_227" d="M42.2669 41.2808H40.0942V43.4534H42.2669V41.2808Z" fill="#01FF00"/>
<path id="Vector_228" d="M11.8497 43.4536H9.677V45.6263H11.8497V43.4536Z" fill="#01FF00"/>
<path id="Vector_229" d="M14.0223 43.4536H11.8496V45.6263H14.0223V43.4536Z" fill="#01FF00"/>
<path id="Vector_230" d="M16.1951 43.4536H14.0225V45.6263H16.1951V43.4536Z" fill="#01FF00"/>
<path id="Vector_231" d="M18.3677 43.4536H16.1951V45.6263H18.3677V43.4536Z" fill="#01FF00"/>
<path id="Vector_232" d="M20.5403 43.4536H18.3677V45.6263H20.5403V43.4536Z" fill="#01FF00"/>
<path id="Vector_233" d="M22.7129 43.4536H20.5403V45.6263H22.7129V43.4536Z" fill="#01FF00"/>
<path id="Vector_234" d="M24.8858 43.4536H22.7131V45.6263H24.8858V43.4536Z" fill="#01FF00"/>
<path id="Vector_235" d="M27.0582 43.4536H24.8855V45.6263H27.0582V43.4536Z" fill="#01FF00"/>
<path id="Vector_236" d="M29.231 43.4536H27.0583V45.6263H29.231V43.4536Z" fill="#01FF00"/>
<path id="Vector_237" d="M31.4036 43.4536H29.231V45.6263H31.4036V43.4536Z" fill="#01FF00"/>
<path id="Vector_238" d="M33.5762 43.4536H31.4036V45.6263H33.5762V43.4536Z" fill="#01FF00"/>
<path id="Vector_239" d="M35.7491 43.4536H33.5764V45.6263H35.7491V43.4536Z" fill="#01FF00"/>
<path id="Vector_240" d="M37.9217 43.4536H35.749V45.6263H37.9217V43.4536Z" fill="#01FF00"/>
<path id="Vector_241" d="M40.0945 43.4536H37.9219V45.6263H40.0945V43.4536Z" fill="#01FF00"/>
<g id="Clip path group">
<mask id="mask0_293_6008" style="mask-type:luminance" maskUnits="userSpaceOnUse" x="56" y="10" width="96" height="30">
<g id="clip0_5385_138">
<path id="Vector_242" d="M151.361 10.8794H56.4897V39.7374H151.361V10.8794Z" fill="white"/>
</g>
</mask>
<g mask="url(#mask0_293_6008)">
<g id="Group">
<path id="Vector_243" d="M115.592 33.4355H115.246C113.034 33.4355 111.233 31.6348 111.233 29.4209V27.7815C111.233 25.5682 113.033 23.7669 115.246 23.7669H115.592C117.158 23.7669 118.517 24.6703 119.177 25.9839H125.723C124.871 21.1607 120.652 17.4854 115.592 17.4854H115.246C109.572 17.4854 104.956 22.1041 104.956 27.7815V29.4209C104.956 35.0982 109.572 39.7169 115.246 39.7169H115.592C120.929 39.7169 125.329 35.6291 125.832 30.4179H119.478C119.035 32.1509 117.46 33.4355 115.592 33.4355Z" fill="#00FF00"/>
<path id="Vector_244" d="M147.617 33.8796C146.268 32.0204 144.846 30.062 143.501 28.209V28.1936C144.641 26.6244 145.981 24.7769 147.133 23.1893C147.17 23.1376 147.209 23.0852 147.246 23.0329C148.595 21.1737 150.017 19.2153 151.361 17.3623C150.311 17.3623 148.196 17.3623 147.146 17.3623H145.038C143.693 19.2153 142.272 21.1743 140.923 23.0329C140.885 23.0846 140.847 23.1369 140.81 23.1893C140.137 24.1161 139.4 25.0528 138.677 26.0499H136.569H136.551L136.569 26.0246V23.8606V21.6971V19.5337V17.3703V15.2063V13.0428V10.8794H134.461H132.353H130.246V13.0428V15.2063V17.3703V19.5337V21.6971V23.8606V26.0246L130.267 26.0499H130.246V28.2133V30.3767V32.5401V34.7042V36.8676V39.0311H132.353H134.461H136.569V36.8676V34.7042V32.5401V30.3767H138.677C139.553 31.5837 140.438 32.7002 141.293 33.8796C141.331 33.9313 141.369 33.9836 141.407 34.036C142.559 35.623 143.899 37.4705 145.038 39.0401C146.916 39.0401 149.484 39.0401 151.361 39.0401C150.222 37.4711 148.882 35.6236 147.73 34.036C147.692 33.9836 147.655 33.9313 147.617 33.8796Z" fill="#00FF00"/>
<path id="Vector_245" d="M100.737 30.3768V28.2133V26.0499H100.722L100.737 26.0247V23.8606V21.6972V19.5338V17.3704H98.6296H96.5217H94.4138H92.3063H90.1984H88.0906H85.9827H83.8744V19.5338V21.6972V23.8606H85.9827H88.0906H90.1984H92.3063H94.4138V26.0247L94.4348 26.0499H94.4138V27.0088C93.9229 26.5943 93.3796 26.2371 92.7942 25.9489C91.9703 25.5412 91.0613 25.274 90.1257 25.1662C89.6581 25.1138 89.1781 25.1003 88.6951 25.1329C88.2117 25.1668 87.7246 25.2419 87.2438 25.3682C86.2827 25.6188 85.3448 26.0653 84.5176 26.707C83.6903 27.3469 82.9737 28.1875 82.4719 29.1784C82.4086 29.3015 82.3519 29.429 82.2934 29.5552C82.2376 29.6827 82.1884 29.8139 82.1378 29.9444C82.0898 30.0763 82.0467 30.2099 82.0036 30.3435C81.9631 30.4784 81.9286 30.6151 81.8937 30.7512C81.8626 30.8885 81.8344 31.0271 81.8074 31.1657C81.7846 31.3048 81.7632 31.4446 81.7452 31.5844C81.7317 31.7248 81.7193 31.8652 81.7088 32.0057C81.7028 32.1461 81.6983 32.2865 81.6953 32.4269C81.6983 32.5673 81.7028 32.7077 81.7088 32.8481C81.7193 32.9885 81.7317 33.1289 81.7452 33.2693C81.7632 33.4091 81.7846 33.5489 81.8074 33.6881C81.8344 33.8267 81.8626 33.9646 81.8937 34.1026C81.9286 34.2387 81.9631 34.3754 82.0036 34.5103C82.0474 34.6439 82.0898 34.7775 82.1378 34.9093C82.1884 35.0399 82.2376 35.171 82.2934 35.2985C82.3519 35.4248 82.4086 35.5522 82.4719 35.6754C82.9737 36.6657 83.6911 37.5064 84.5176 38.1469C85.3452 38.7889 86.2827 39.2348 87.2438 39.4857C87.7246 39.6117 88.2117 39.6871 88.6951 39.7208C89.1781 39.7534 89.6581 39.7399 90.1257 39.6874C91.0617 39.5798 91.9703 39.3124 92.7942 38.9048C93.3796 38.6168 93.9229 38.2594 94.4138 37.8451V39.0316H96.5217H98.6296H100.737H102.845V36.8677V34.7043V32.5402H100.737V30.3768ZM93.4317 33.637C93.2217 34.0046 92.9131 34.3212 92.5486 34.5509C92.1848 34.7818 91.7682 34.9247 91.3504 34.9758C90.9312 35.0263 90.5146 34.9881 90.1257 34.8828C89.3442 34.6673 88.7712 34.1882 88.4457 33.7127C88.2814 33.4744 88.1776 33.2398 88.1172 33.0292C88.0568 32.8167 88.0336 32.6301 88.0336 32.4269C88.0336 32.2237 88.0568 32.0371 88.1172 31.8246C88.1779 31.614 88.2814 31.3793 88.4457 31.141C88.7712 30.6656 89.3442 30.1865 90.1257 29.9709C90.5146 29.865 90.9312 29.8274 91.3504 29.878C91.7682 29.9284 92.1848 30.0719 92.5486 30.3029C92.9131 30.5326 93.2213 30.8491 93.4317 31.2168C93.6428 31.5844 93.7549 32.0007 93.7553 32.4269C93.7549 32.8531 93.6428 33.2693 93.4317 33.637Z" fill="#00FF00"/>
<path id="Vector_246" d="M73.3359 17.3703H71.228H69.137V17.3826L69.1201 17.3703H67.0291H64.9209H62.813V15.2063V13.0428V10.8794H60.7051H58.5972H56.4897V13.0428V15.2063V17.3703V19.5337V21.6971V23.8606V26.0246L56.5111 26.0499H56.4897V28.2133V30.3767V32.5401V34.7042V36.8676V39.0311H58.5972H60.7051H62.813V36.8676V34.7042V32.5401V30.3767V28.2133V26.0499H62.7879L62.813 26.0246V23.8606H64.9209H67.0291H69.1201L69.137 23.8409V23.8606H71.228V26.0246L71.2422 26.0499H71.228V28.2133V30.3767V32.5401V34.7042V36.8676V39.0311H73.3359H75.4434H77.5512V36.8676V34.7042V32.5401V30.3767V28.2133V26.0499H77.5197L77.5512 26.0246V23.8606V21.6971V19.5337V17.3703H75.4434H73.3359Z" fill="#00FF00"/>
</g>
</g>
</g>
</g>
<defs>
<clipPath id="clip0_293_6008">
<rect width="150.375" height="48" fill="white" transform="translate(0.986328)"/>
</clipPath>
</defs>
</svg>
